<?xml version="1.0" encoding="UTF-8" standalone="no"?>
<!DOCTYPE svg PUBLIC "-//W3C//DTD SVG 1.1//EN" "http://www.w3.org/Graphics/SVG/1.1/DTD/svg11.dtd">
<svg width="100%" height="100%" viewBox="0 0 3100 1001" version="1.1" xmlns="http://www.w3.org/2000/svg" xmlns:xlink="http://www.w3.org/1999/xlink" xml:space="preserve" xmlns:serif="http://www.serif.com/" style="fill-rule:evenodd;clip-rule:evenodd;stroke-linejoin:round;stroke-miterlimit:2;">
    <g transform="matrix(1,0,0,1,-44,-4591)">
        <g id="Logotipo_SVG_Sin_Fondo" transform="matrix(0.892264,0,0,0.996427,503.293,6636.13)">
            <rect x="-514.751" y="-2052.27" width="3474.31" height="1003.59" style="fill:none;"/>
            <g id="Subtítulo" transform="matrix(2.1032,0,1.76153e-17,1.94536,-971.538,-2385.15)">
                <g transform="matrix(1.03361,0,-6.31835e-33,1.03361,696.672,547.413)">
                    <path d="M0,11.769L9.027,11.769L4.61,-4.548L4.445,-4.548L0,11.769ZM10.976,19.052L-1.976,19.052L-4.664,29.04L-13.033,29.04L0.439,-17.271L8.644,-17.271L22.062,29.04L13.692,29.04L10.976,19.052Z" style="fill:rgb(19,166,186);fill-rule:nonzero;"/>
                </g>
                <g transform="matrix(1.03361,0,-6.31835e-33,1.03361,744.971,541.364)">
                    <path d="M0,22.137C0,20.357 -0.535,18.925 -1.604,17.843C-2.675,16.762 -4.555,15.744 -7.244,14.79C-11.854,13.179 -15.352,11.281 -17.739,9.097C-20.126,6.913 -21.32,3.934 -21.32,0.159C-21.32,-3.636 -19.976,-6.737 -17.286,-9.144C-14.598,-11.551 -11.168,-12.755 -6.997,-12.755C-2.57,-12.755 0.992,-11.461 3.69,-8.874C6.389,-6.287 7.692,-2.894 7.601,1.304L7.546,1.495L-0.22,1.495C-0.22,-0.816 -0.823,-2.592 -2.03,-3.833C-3.237,-5.073 -4.93,-5.693 -7.106,-5.693C-9.082,-5.693 -10.609,-5.141 -11.688,-4.04C-12.769,-2.936 -13.308,-1.527 -13.308,0.191C-13.308,1.76 -12.723,3.048 -11.552,4.055C-10.381,5.063 -8.359,6.128 -5.487,7.252C-1.098,8.695 2.25,10.575 4.555,12.898C6.86,15.219 8.013,18.279 8.013,22.074C8.013,26.039 6.677,29.166 4.007,31.456C1.335,33.746 -2.195,34.892 -6.585,34.892C-10.884,34.892 -14.574,33.652 -17.657,31.17C-20.739,28.69 -22.235,24.99 -22.144,20.07L-22.088,19.879L-14.323,19.879C-14.323,22.615 -13.628,24.629 -12.237,25.922C-10.848,27.216 -8.963,27.863 -6.585,27.863C-4.445,27.863 -2.813,27.343 -1.687,26.304C-0.562,25.265 0,23.876 0,22.137" style="fill:rgb(19,166,186);fill-rule:nonzero;"/>
                </g>
                <g transform="matrix(1.03361,0,-6.31835e-33,1.03361,784.508,557.177)">
                    <path d="M0,-8.461C0,-12.065 -0.778,-15.023 -2.333,-17.335C-3.888,-19.646 -6.037,-20.802 -8.78,-20.802C-11.488,-20.802 -13.597,-19.646 -15.105,-17.335C-16.614,-15.023 -17.369,-12.065 -17.369,-8.461L-17.369,-0.064C-17.369,3.604 -16.61,6.595 -15.092,8.905C-13.573,11.217 -11.452,12.373 -8.726,12.373C-5.982,12.373 -3.842,11.217 -2.305,8.905C-0.769,6.595 0,3.604 0,-0.064L0,-8.461ZM7.984,-0.064C7.984,5.641 6.438,10.343 3.348,14.043C0.256,17.743 -3.769,19.593 -8.726,19.593C-13.665,19.593 -17.671,17.737 -20.744,14.026C-23.817,10.316 -25.354,5.619 -25.354,-0.064L-25.354,-8.398C-25.354,-14.059 -23.822,-18.75 -20.758,-22.472C-17.694,-26.192 -13.702,-28.054 -8.78,-28.054C-3.823,-28.054 0.21,-26.192 3.32,-22.472C6.43,-18.75 7.984,-14.059 7.984,-8.398L7.984,-0.064Z" style="fill:rgb(87,184,69);fill-rule:nonzero;"/>
                </g>
                <g transform="matrix(1.03361,0,-6.31835e-33,1.03361,830.283,544.718)">
                    <path d="M0,15.648L0.055,15.839C0.128,20.78 -1.171,24.65 -3.842,27.449C-6.513,30.248 -10.198,31.647 -14.899,31.647C-19.692,31.647 -23.562,29.861 -26.507,26.288C-29.452,22.714 -30.924,18.097 -30.924,12.436L-30.924,3.244C-30.924,-2.397 -29.488,-7.014 -26.616,-10.608C-23.744,-14.203 -19.976,-15.999 -15.312,-15.999C-10.445,-15.999 -6.641,-14.621 -3.896,-11.865C-1.152,-9.108 0.183,-5.227 0.109,-0.223L0.055,-0.033L-7.738,-0.033C-7.738,-3 -8.355,-5.211 -9.59,-6.664C-10.825,-8.117 -12.732,-8.843 -15.312,-8.843C-17.708,-8.843 -19.578,-7.724 -20.923,-5.487C-22.267,-3.249 -22.939,-0.361 -22.939,3.18L-22.939,12.436C-22.939,15.999 -22.23,18.904 -20.812,21.151C-19.396,23.399 -17.424,24.522 -14.899,24.522C-12.504,24.522 -10.715,23.796 -9.535,22.343C-8.355,20.891 -7.766,18.66 -7.766,15.648L0,15.648Z" style="fill:rgb(87,184,69);fill-rule:nonzero;"/>
                </g>
                <g transform="matrix(-1.03361,0,-6.31835e-33,1.03361,1724.04,299.093)">
                    <rect x="850.341" y="222.973" width="8.013" height="46.311" style="fill:rgb(87,184,69);"/>
                </g>
                <g transform="matrix(1.03361,0,-6.31835e-33,1.03361,864.005,547.413)">
                    <path d="M0,11.769L9.027,11.769L4.61,-4.548L4.445,-4.548L0,11.769ZM10.976,19.052L-1.976,19.052L-4.664,29.04L-13.033,29.04L0.439,-17.271L8.644,-17.271L22.062,29.04L13.692,29.04L10.976,19.052Z" style="fill:rgb(87,184,69);fill-rule:nonzero;"/>
                </g>
                <g transform="matrix(1.03361,0,-6.31835e-33,1.03361,921.437,544.718)">
                    <path d="M0,15.648L0.055,15.839C0.128,20.78 -1.171,24.65 -3.842,27.449C-6.513,30.248 -10.198,31.647 -14.899,31.647C-19.692,31.647 -23.562,29.861 -26.507,26.288C-29.452,22.714 -30.924,18.097 -30.924,12.436L-30.924,3.244C-30.924,-2.397 -29.488,-7.014 -26.616,-10.608C-23.744,-14.203 -19.976,-15.999 -15.312,-15.999C-10.445,-15.999 -6.641,-14.621 -3.896,-11.865C-1.152,-9.108 0.183,-5.227 0.109,-0.223L0.055,-0.033L-7.738,-0.033C-7.738,-3 -8.355,-5.211 -9.59,-6.664C-10.825,-8.117 -12.732,-8.843 -15.312,-8.843C-17.708,-8.843 -19.578,-7.724 -20.923,-5.487C-22.267,-3.249 -22.939,-0.361 -22.939,3.18L-22.939,12.436C-22.939,15.999 -22.23,18.904 -20.812,21.151C-19.396,23.399 -17.424,24.522 -14.899,24.522C-12.504,24.522 -10.715,23.796 -9.535,22.343C-8.355,20.891 -7.766,18.66 -7.766,15.648L0,15.648Z" style="fill:rgb(87,184,69);fill-rule:nonzero;"/>
                </g>
                <g transform="matrix(-1.03361,0,-6.31835e-33,1.03361,1906.35,299.093)">
                    <rect x="938.531" y="222.973" width="8.013" height="46.311" style="fill:rgb(87,184,69);"/>
                </g>
                <g transform="matrix(1.03361,0,-6.31835e-33,1.03361,962.306,577.429)">
                    <path d="M0,-60.687L8.917,-60.687L8.973,-60.497L1.371,-52.227L-5.461,-52.227L0,-60.687ZM7.079,-28.054C7.079,-31.659 6.301,-34.617 4.746,-36.928C3.191,-39.239 1.042,-40.395 -1.701,-40.395C-4.409,-40.395 -6.518,-39.239 -8.026,-36.928C-9.535,-34.617 -10.29,-31.659 -10.29,-28.054L-10.29,-19.657C-10.29,-15.989 -9.531,-12.999 -8.013,-10.688C-6.494,-8.376 -4.373,-7.22 -1.646,-7.22C1.097,-7.22 3.237,-8.376 4.774,-10.688C6.311,-12.999 7.079,-15.989 7.079,-19.657L7.079,-28.054ZM15.063,-19.657C15.063,-13.953 13.518,-9.25 10.427,-5.55C7.335,-1.85 3.311,0 -1.646,0C-6.586,0 -10.592,-1.856 -13.665,-5.567C-16.738,-9.277 -18.275,-13.974 -18.275,-19.657L-18.275,-27.991C-18.275,-33.652 -16.743,-38.343 -13.679,-42.065C-10.615,-45.786 -6.623,-47.647 -1.701,-47.647C3.256,-47.647 7.289,-45.786 10.399,-42.065C13.509,-38.343 15.063,-33.652 15.063,-27.991L15.063,-19.657Z" style="fill:rgb(87,184,69);fill-rule:nonzero;"/>
                </g>
                <g transform="matrix(1.03361,0,-6.31835e-33,1.03361,1017.81,529.561)">
                    <path d="M0,46.311L-8.012,46.311L-24.119,15.077L-24.283,15.109L-24.283,46.311L-32.296,46.311L-32.296,0L-24.283,0L-8.177,31.203L-8.012,31.171L-8.012,0L0,0L0,46.311Z" style="fill:rgb(87,184,69);fill-rule:nonzero;"/>
                </g>
                <g transform="matrix(1.03361,0,-6.31835e-33,1.03361,1073.26,529.561)">
                    <path d="M0,46.311L-8.012,46.311L-24.119,15.077L-24.283,15.109L-24.283,46.311L-32.296,46.311L-32.296,0L-24.283,0L-8.177,31.203L-8.012,31.171L-8.012,0L0,0L0,46.311Z" style="fill:rgb(19,166,186);fill-rule:nonzero;"/>
                </g>
                <g transform="matrix(1.03361,0,-6.31835e-33,1.03361,1091.55,547.413)">
                    <path d="M0,11.769L9.027,11.769L4.61,-4.548L4.445,-4.548L0,11.769ZM10.976,19.052L-1.976,19.052L-4.664,29.04L-13.033,29.04L0.439,-17.271L8.644,-17.271L22.062,29.04L13.692,29.04L10.976,19.052Z" style="fill:rgb(19,166,186);fill-rule:nonzero;"/>
                </g>
                <g transform="matrix(1.03361,0,-6.31835e-33,1.03361,1148.98,544.718)">
                    <path d="M0,15.648L0.055,15.839C0.128,20.78 -1.171,24.65 -3.842,27.449C-6.513,30.248 -10.198,31.647 -14.899,31.647C-19.692,31.647 -23.562,29.861 -26.507,26.288C-29.452,22.714 -30.924,18.097 -30.924,12.436L-30.924,3.244C-30.924,-2.397 -29.488,-7.014 -26.616,-10.608C-23.744,-14.203 -19.976,-15.999 -15.312,-15.999C-10.445,-15.999 -6.641,-14.621 -3.896,-11.865C-1.152,-9.108 0.183,-5.227 0.109,-0.223L0.055,-0.033L-7.738,-0.033C-7.738,-3 -8.355,-5.211 -9.59,-6.664C-10.825,-8.117 -12.732,-8.843 -15.312,-8.843C-17.708,-8.843 -19.578,-7.724 -20.923,-5.487C-22.267,-3.249 -22.939,-0.361 -22.939,3.18L-22.939,12.436C-22.939,15.999 -22.23,18.904 -20.812,21.151C-19.396,23.399 -17.424,24.522 -14.899,24.522C-12.504,24.522 -10.715,23.796 -9.535,22.343C-8.355,20.891 -7.766,18.66 -7.766,15.648L0,15.648Z" style="fill:rgb(87,184,69);fill-rule:nonzero;"/>
                </g>
                <g transform="matrix(-1.03361,0,-6.31835e-33,1.03361,2361.44,299.093)">
                    <rect x="1158.67" y="222.973" width="8.013" height="46.311" style="fill:rgb(87,184,69);"/>
                </g>
                <g transform="matrix(1.03361,0,-6.31835e-33,1.03361,1197.17,557.177)">
                    <path d="M0,-8.461C0,-12.065 -0.778,-15.023 -2.333,-17.335C-3.888,-19.646 -6.037,-20.802 -8.78,-20.802C-11.488,-20.802 -13.597,-19.646 -15.105,-17.335C-16.614,-15.023 -17.369,-12.065 -17.369,-8.461L-17.369,-0.064C-17.369,3.604 -16.61,6.595 -15.092,8.905C-13.573,11.217 -11.452,12.373 -8.726,12.373C-5.982,12.373 -3.842,11.217 -2.305,8.905C-0.769,6.595 0,3.604 0,-0.064L0,-8.461ZM7.984,-0.064C7.984,5.641 6.438,10.343 3.348,14.043C0.256,17.743 -3.769,19.593 -8.726,19.593C-13.665,19.593 -17.671,17.737 -20.744,14.026C-23.817,10.316 -25.354,5.619 -25.354,-0.064L-25.354,-8.398C-25.354,-14.059 -23.822,-18.75 -20.758,-22.472C-17.694,-26.192 -13.702,-28.054 -8.78,-28.054C-3.823,-28.054 0.21,-26.192 3.32,-22.472C6.43,-18.75 7.984,-14.059 7.984,-8.398L7.984,-0.064Z" style="fill:rgb(87,184,69);fill-rule:nonzero;"/>
                </g>
                <g transform="matrix(1.03361,0,-6.31835e-33,1.03361,1245.35,529.561)">
                    <path d="M0,46.311L-8.012,46.311L-24.119,15.077L-24.283,15.109L-24.283,46.311L-32.296,46.311L-32.296,0L-24.283,0L-8.177,31.203L-8.012,31.171L-8.012,0L0,0L0,46.311Z" style="fill:rgb(87,184,69);fill-rule:nonzero;"/>
                </g>
                <g transform="matrix(1.03361,0,-6.31835e-33,1.03361,1263.65,547.413)">
                    <path d="M0,11.769L9.027,11.769L4.61,-4.548L4.445,-4.548L0,11.769ZM10.976,19.052L-1.976,19.052L-4.664,29.04L-13.033,29.04L0.439,-17.271L8.644,-17.271L22.062,29.04L13.692,29.04L10.976,19.052Z" style="fill:rgb(87,184,69);fill-rule:nonzero;"/>
                </g>
                <g transform="matrix(1.03361,0,-6.31835e-33,1.03361,1298.7,536.926)">
                    <path d="M0,32.061L17.89,32.061L17.89,39.186L-8.013,39.186L-8.013,-7.125L0,-7.125L0,32.061Z" style="fill:rgb(87,184,69);fill-rule:nonzero;"/>
                </g>
                <g transform="matrix(1.03361,0,-6.31835e-33,1.03361,1345.44,570.033)">
                    <path d="M0,-31.998L0,0.031L5.927,0.031C8.561,0.031 10.683,-1.108 12.292,-3.388C13.902,-5.667 14.707,-8.588 14.707,-12.15L14.707,-19.879C14.707,-23.42 13.902,-26.325 12.292,-28.595C10.683,-30.863 8.561,-31.998 5.927,-31.998L0,-31.998ZM-8.013,7.156L-8.013,-39.154L5.927,-39.154C10.811,-39.154 14.835,-37.346 18,-33.731C21.164,-30.115 22.747,-25.477 22.747,-19.815L22.747,-12.15C22.747,-6.468 21.164,-1.829 18,1.765C14.835,5.359 10.811,7.156 5.927,7.156L-8.013,7.156Z" style="fill:rgb(87,184,69);fill-rule:nonzero;"/>
                </g>
                <g transform="matrix(1.03361,0,-6.31835e-33,1.03361,1399.18,550.603)">
                    <path d="M0,5.598L-14.816,5.598L-14.816,18.829L2.799,18.829L2.799,25.954L-22.829,25.954L-22.829,-20.356L2.744,-20.356L2.744,-13.2L-14.816,-13.2L-14.816,-1.558L0,-1.558L0,5.598Z" style="fill:rgb(87,184,69);fill-rule:nonzero;"/>
                </g>
                <g transform="matrix(1.03361,0,-6.31835e-33,1.03361,1430.64,570.033)">
                    <path d="M0,-31.998L0,0.031L5.927,0.031C8.561,0.031 10.683,-1.108 12.292,-3.388C13.902,-5.667 14.707,-8.588 14.707,-12.15L14.707,-19.879C14.707,-23.42 13.902,-26.325 12.292,-28.595C10.683,-30.863 8.561,-31.998 5.927,-31.998L0,-31.998ZM-8.013,7.156L-8.013,-39.154L5.927,-39.154C10.811,-39.154 14.835,-37.346 18,-33.731C21.164,-30.115 22.747,-25.477 22.747,-19.815L22.747,-12.15C22.747,-6.468 21.164,-1.829 18,1.765C14.835,5.359 10.811,7.156 5.927,7.156L-8.013,7.156Z" style="fill:rgb(19,166,186);fill-rule:nonzero;"/>
                </g>
                <g transform="matrix(-1.03361,0,-6.31835e-33,1.03361,2973.08,299.093)">
                    <rect x="1454.55" y="222.973" width="8.013" height="46.311" style="fill:rgb(19,166,186);"/>
                </g>
                <g transform="matrix(1.03361,0,-6.31835e-33,1.03361,1501.43,550.603)">
                    <path d="M0,5.598L-14.816,5.598L-14.816,18.829L2.799,18.829L2.799,25.954L-22.829,25.954L-22.829,-20.356L2.744,-20.356L2.744,-13.2L-14.816,-13.2L-14.816,-1.558L0,-1.558L0,5.598Z" style="fill:rgb(87,184,69);fill-rule:nonzero;"/>
                </g>
                <g transform="matrix(1.03361,0,-6.31835e-33,1.03361,1538.92,570.033)">
                    <path d="M0,-31.998L-11.414,-31.998L-11.414,7.156L-19.427,7.156L-19.427,-31.998L-30.677,-31.998L-30.677,-39.154L0,-39.154L0,-31.998Z" style="fill:rgb(87,184,69);fill-rule:nonzero;"/>
                </g>
                <g transform="matrix(-1.03361,0,-6.31835e-33,1.03361,3138.43,299.093)">
                    <rect x="1534.54" y="222.973" width="8.013" height="46.311" style="fill:rgb(87,184,69);"/>
                </g>
                <g transform="matrix(1.03361,0,-6.31835e-33,1.03361,1582.03,541.364)">
                    <path d="M0,22.137C0,20.357 -0.535,18.925 -1.604,17.843C-2.675,16.762 -4.555,15.744 -7.244,14.79C-11.854,13.179 -15.352,11.281 -17.739,9.097C-20.126,6.913 -21.32,3.934 -21.32,0.159C-21.32,-3.636 -19.976,-6.737 -17.286,-9.144C-14.598,-11.551 -11.168,-12.755 -6.997,-12.755C-2.57,-12.755 0.992,-11.461 3.69,-8.874C6.389,-6.287 7.692,-2.894 7.601,1.304L7.546,1.495L-0.22,1.495C-0.22,-0.816 -0.823,-2.592 -2.03,-3.833C-3.237,-5.073 -4.93,-5.693 -7.106,-5.693C-9.082,-5.693 -10.609,-5.141 -11.688,-4.04C-12.769,-2.936 -13.308,-1.527 -13.308,0.191C-13.308,1.76 -12.723,3.048 -11.552,4.055C-10.381,5.063 -8.359,6.128 -5.487,7.252C-1.098,8.695 2.25,10.575 4.555,12.898C6.86,15.219 8.013,18.279 8.013,22.074C8.013,26.039 6.677,29.166 4.007,31.456C1.335,33.746 -2.195,34.892 -6.585,34.892C-10.884,34.892 -14.574,33.652 -17.657,31.17C-20.739,28.69 -22.235,24.99 -22.144,20.07L-22.088,19.879L-14.323,19.879C-14.323,22.615 -13.628,24.629 -12.237,25.922C-10.848,27.216 -8.963,27.863 -6.585,27.863C-4.445,27.863 -2.813,27.343 -1.687,26.304C-0.562,25.265 0,23.876 0,22.137" style="fill:rgb(87,184,69);fill-rule:nonzero;"/>
                </g>
                <g transform="matrix(1.03361,0,-6.31835e-33,1.03361,1625.2,570.033)">
                    <path d="M0,-31.998L-11.414,-31.998L-11.414,7.156L-19.427,7.156L-19.427,-31.998L-30.677,-31.998L-30.677,-39.154L0,-39.154L0,-31.998Z" style="fill:rgb(87,184,69);fill-rule:nonzero;"/>
                </g>
                <g transform="matrix(1.03361,0,-6.31835e-33,1.03361,1636.83,547.413)">
                    <path d="M0,11.769L9.027,11.769L4.61,-4.548L4.445,-4.548L0,11.769ZM10.976,19.052L-1.976,19.052L-4.664,29.04L-13.033,29.04L0.439,-17.271L8.644,-17.271L22.062,29.04L13.692,29.04L10.976,19.052Z" style="fill:rgb(87,184,69);fill-rule:nonzero;"/>
                </g>
                <g transform="matrix(1.03361,0,-6.31835e-33,1.03361,1685.13,541.364)">
                    <path d="M0,22.137C0,20.357 -0.535,18.925 -1.604,17.843C-2.675,16.762 -4.555,15.744 -7.244,14.79C-11.854,13.179 -15.352,11.281 -17.739,9.097C-20.126,6.913 -21.32,3.934 -21.32,0.159C-21.32,-3.636 -19.976,-6.737 -17.286,-9.144C-14.598,-11.551 -11.168,-12.755 -6.997,-12.755C-2.57,-12.755 0.992,-11.461 3.69,-8.874C6.389,-6.287 7.692,-2.894 7.601,1.304L7.546,1.495L-0.22,1.495C-0.22,-0.816 -0.823,-2.592 -2.03,-3.833C-3.237,-5.073 -4.93,-5.693 -7.106,-5.693C-9.082,-5.693 -10.609,-5.141 -11.688,-4.04C-12.769,-2.936 -13.308,-1.527 -13.308,0.191C-13.308,1.76 -12.723,3.048 -11.552,4.055C-10.381,5.063 -8.359,6.128 -5.487,7.252C-1.098,8.695 2.25,10.575 4.555,12.898C6.86,15.219 8.013,18.279 8.013,22.074C8.013,26.039 6.677,29.166 4.007,31.456C1.335,33.746 -2.195,34.892 -6.585,34.892C-10.884,34.892 -14.574,33.652 -17.657,31.17C-20.739,28.69 -22.235,24.99 -22.144,20.07L-22.088,19.879L-14.323,19.879C-14.323,22.615 -13.628,24.629 -12.237,25.922C-10.848,27.216 -8.963,27.863 -6.585,27.863C-4.445,27.863 -2.813,27.343 -1.687,26.304C-0.562,25.265 0,23.876 0,22.137" style="fill:rgb(87,184,69);fill-rule:nonzero;"/>
                </g>
                <g transform="matrix(1.03361,0,-6.31835e-33,1.03361,1742.76,570.033)">
                    <path d="M0,-31.998L-11.414,-31.998L-11.414,7.156L-19.427,7.156L-19.427,-31.998L-30.677,-31.998L-30.677,-39.154L0,-39.154L0,-31.998Z" style="fill:rgb(87,184,69);fill-rule:nonzero;"/>
                </g>
                <g transform="matrix(1.03361,0,-6.31835e-33,1.03361,1768.37,541.364)">
                    <path d="M0,22.137C0,20.357 -0.535,18.925 -1.604,17.843C-2.675,16.762 -4.555,15.744 -7.244,14.79C-11.854,13.179 -15.352,11.281 -17.739,9.097C-20.126,6.913 -21.32,3.934 -21.32,0.159C-21.32,-3.636 -19.976,-6.737 -17.286,-9.144C-14.598,-11.551 -11.168,-12.755 -6.997,-12.755C-2.57,-12.755 0.992,-11.461 3.69,-8.874C6.389,-6.287 7.692,-2.894 7.601,1.304L7.546,1.495L-0.22,1.495C-0.22,-0.816 -0.823,-2.592 -2.03,-3.833C-3.237,-5.073 -4.93,-5.693 -7.106,-5.693C-9.082,-5.693 -10.609,-5.141 -11.688,-4.04C-12.769,-2.936 -13.308,-1.527 -13.308,0.191C-13.308,1.76 -12.723,3.048 -11.552,4.055C-10.381,5.063 -8.359,6.128 -5.487,7.252C-1.098,8.695 2.25,10.575 4.555,12.898C6.86,15.219 8.013,18.279 8.013,22.074C8.013,26.039 6.677,29.166 4.007,31.456C1.335,33.746 -2.195,34.892 -6.585,34.892C-10.884,34.892 -14.574,33.652 -17.657,31.17C-20.739,28.69 -22.235,24.99 -22.144,20.07L-22.088,19.879L-14.323,19.879C-14.323,22.615 -13.628,24.629 -12.237,25.922C-10.848,27.216 -8.963,27.863 -6.585,27.863C-4.445,27.863 -2.813,27.343 -1.687,26.304C-0.562,25.265 0,23.876 0,22.137" style="fill:rgb(87,184,69);fill-rule:nonzero;"/>
                </g>
                <g transform="matrix(1.03361,0,-6.31835e-33,1.03361,1791.03,570.033)">
                    <path d="M0,-31.998L0,0.031L5.927,0.031C8.561,0.031 10.683,-1.108 12.292,-3.388C13.902,-5.667 14.707,-8.588 14.707,-12.15L14.707,-19.879C14.707,-23.42 13.902,-26.325 12.292,-28.595C10.683,-30.863 8.561,-31.998 5.927,-31.998L0,-31.998ZM-8.013,7.156L-8.013,-39.154L5.927,-39.154C10.811,-39.154 14.835,-37.346 18,-33.731C21.164,-30.115 22.747,-25.477 22.747,-19.815L22.747,-12.15C22.747,-6.468 21.164,-1.829 18,1.765C14.835,5.359 10.811,7.156 5.927,7.156L-8.013,7.156Z" style="fill:rgb(87,184,69);fill-rule:nonzero;"/>
                </g>
            </g>
            <g id="Título" transform="matrix(2.14305,0,1.79491e-17,1.71325,-1010.54,-2251.98)">
                <g transform="matrix(1,0,0,1,0,-62.616)">
                    <rect x="1775.07" y="306.974" width="23.926" height="248.668" style="fill:rgb(148,224,30);"/>
                </g>
                <g transform="matrix(1,0,0,1,1572.98,469.1)">
                    <path d="M0,-200.816L53.119,-200.816C75.418,-200.816 93.912,-192.876 109.659,-176.544C125.479,-160.126 133.169,-140.046 133.169,-115.155L133.169,-86.141C133.169,-60.923 125.479,-40.686 109.659,-24.274C93.916,-7.94 75.422,0 53.119,0L0,0L0,-200.816ZM126.874,-7.154C146.927,-27.722 157.095,-54.296 157.095,-86.141L157.095,-114.674C157.095,-146.405 146.931,-172.951 126.882,-193.575C106.773,-214.256 81.956,-224.742 53.119,-224.742L-23.926,-224.742L-23.926,23.926L53.119,23.926C81.953,23.926 106.768,13.469 126.874,-7.154" style="fill:rgb(148,224,30);fill-rule:nonzero;"/>
                </g>
                <g transform="matrix(1,0,0,1,1383.83,338.016)">
                    <path d="M0,61.354L42.772,-52.938L85.545,61.354L0,61.354ZM146.357,155.011L53.276,-93.657L32.105,-93.657L-60.804,155.011L-35.052,155.011L-8.923,85.28L94.468,85.28L120.597,155.011L146.357,155.011Z" style="fill:rgb(19,166,186);fill-rule:nonzero;"/>
                </g>
                <g transform="matrix(1,0,0,1,1141.93,446.213)">
                    <path d="M0,-155.042L139.037,46.813L159.339,46.813L159.339,-201.855L135.413,-201.855L135.413,-0.438L-3.628,-201.855L-24.087,-201.855L-24.087,46.813L0,46.813L0,-155.042Z" style="fill:rgb(19,166,186);fill-rule:nonzero;"/>
                </g>
                <g transform="matrix(1,0,0,1,1061.06,353.163)">
                    <path d="M0,31.058C-13.697,21.552 -33.72,12.727 -61.351,4.037C-87.467,-3.645 -105.335,-11.425 -114.465,-19.093C-122.715,-26.018 -126.724,-34.828 -126.724,-46.026C-126.724,-57.144 -121.581,-66.649 -111.005,-75.083C-100.049,-83.817 -84.77,-88.245 -65.59,-88.245C-46.946,-88.245 -32.301,-83.269 -20.817,-73.03C-9.593,-63.018 -4.135,-50.725 -4.135,-35.446L-4.135,-27.812L16.376,-27.812L18.805,-35.096L18.827,-36.257C19.299,-60.048 11.457,-78.942 -4.478,-92.414C-19.993,-105.524 -40.555,-112.171 -65.59,-112.171C-89.602,-112.171 -109.823,-106.19 -125.691,-94.393C-142.253,-82.076 -150.65,-65.696 -150.65,-45.706C-150.65,-25.56 -143.301,-10.047 -128.808,0.402C-115.552,9.961 -95.811,18.661 -68.609,26.952C-43.129,35.308 -25.015,43.422 -14.774,51.062C-5.78,57.776 -1.409,66.339 -1.409,77.245C-1.409,88.934 -6.91,98.51 -18.225,106.52C-30.206,115.004 -45.765,119.304 -64.468,119.304C-83.357,119.304 -100.19,114.856 -114.5,106.083C-127.796,97.935 -134.258,84.99 -134.258,66.505L-134.258,58.87L-154.609,58.87L-157.034,66.143L-157.061,67.292C-157.658,93.521 -148.236,113.129 -129.058,125.568C-110.998,137.287 -89.268,143.229 -64.468,143.229C-40.536,143.229 -20.025,137.373 -3.507,125.822C13.867,113.675 22.677,97.224 22.677,76.925C22.677,56.939 15.048,41.507 0,31.058" style="fill:rgb(148,224,30);fill-rule:nonzero;"/>
                </g>
                <g transform="matrix(1,0,0,1,749.534,338.016)">
                    <path d="M0,61.354L42.772,-52.938L85.545,61.354L0,61.354ZM53.275,-93.657L32.119,-93.657L-60.837,153.103L-35.104,153.103L-8.976,85.28L94.468,85.28L120.597,155.011L146.356,155.011L53.275,-93.657Z" style="fill:rgb(148,224,30);fill-rule:nonzero;"/>
                </g>
            </g>
            <g>
                <g id="Hoja" transform="matrix(0.318381,-0.0981944,0.110097,0.28624,-321.331,-2514.23)">
                    <g transform="matrix(0.998861,-0.0475208,0.0479019,0.998861,-112.504,57.4339)">
                        <path d="M525.238,2109.67L275.176,2109.87L150.086,2234.54L275.073,2359.21L525.136,2359.01L650.225,2234.34L525.238,2109.67Z" style="fill:rgb(148,224,30);"/>
                        <path d="M525.238,2109.67L275.176,2109.87L150.086,2234.54L275.073,2359.21L525.136,2359.01L650.225,2234.34L525.238,2109.67ZM508.691,2149.47L593.772,2234.33C593.772,2234.33 508.572,2319.25 508.572,2319.25C508.572,2319.25 291.62,2319.42 291.62,2319.42C291.62,2319.42 206.539,2234.55 206.539,2234.55C206.539,2234.55 291.74,2149.64 291.74,2149.64L508.691,2149.47Z" style="fill:rgb(57,141,52);"/>
                    </g>
                    <g transform="matrix(4.66561,1.60054,-1.14694,3.31678,50.6148,2262.04)">
                        <path d="M0.031,121.324L20,121.324L20,-3.216L0,-3.216L0,76.784L0.031,121.324Z" style="fill:rgb(57,141,52);fill-rule:nonzero;"/>
                    </g>
                </g>
                <g id="Centro" transform="matrix(1.33935,0,1.12177e-17,1.23883,-580.993,-1990.76)">
                    <g id="VerdeOscuro" transform="matrix(208.037,1.5348e-45,1.68686e-15,-201.405,404.386,430.096)">
                        <path d="M-1.076,0.885L-1.076,-0.356L-0.002,-0.976L1.073,-0.356L1.073,0.885L0.34,1.308L-0.002,1.17L-0.343,1.308L-1.076,0.885Z" style="fill:rgb(57,141,52);fill-rule:nonzero;"/>
                        <path d="M-1.076,0.885L-1.076,-0.356L-0.002,-0.976L1.073,-0.356L1.073,0.885L0.34,1.308L-0.002,1.17L-0.343,1.308L-1.076,0.885ZM-0.998,0.84L-0.337,1.221C-0.337,1.221 -0.002,1.086 -0.002,1.086L0.334,1.221C0.334,1.221 0.847,0.925 0.994,0.84C0.994,0.646 0.994,-0.116 0.994,-0.31C0.994,-0.31 -0.002,-0.885 -0.002,-0.885C-0.17,-0.788 -0.829,-0.407 -0.998,-0.31L-0.998,0.84Z" style="fill:rgb(148,224,30);"/>
                    </g>
                    <g id="Motivos" transform="matrix(0.924456,0,-7.49593e-18,0.894983,-2118.49,-1436.42)">
                        <path d="M2716.46,2179.48C2702.48,2172.27 2696.99,2155.08 2704.2,2141.1C2711.41,2127.11 2728.6,2121.62 2742.58,2128.84C2756.57,2136.05 2762.06,2153.23 2754.85,2167.22C2749.79,2177.03 2739.83,2182.66 2729.5,2182.66C2725.1,2182.66 2720.64,2181.64 2716.46,2179.48ZM2661.89,2139.39C2657.07,2134.57 2657.07,2126.76 2661.89,2121.94L2729.07,2054.76L2796.24,2121.94C2801.06,2126.76 2801.06,2134.57 2796.24,2139.39C2793.84,2141.8 2790.68,2143 2787.52,2143C2784.36,2143 2781.2,2141.8 2778.79,2139.39L2729.07,2089.66L2679.34,2139.39C2676.93,2141.8 2673.77,2143 2670.61,2143C2667.45,2143 2664.3,2141.8 2661.89,2139.39ZM2635.21,2109.01C2630.39,2104.19 2630.39,2096.38 2635.21,2091.56L2684.94,2041.83L2635.21,1992.1C2630.39,1987.28 2630.39,1979.47 2635.21,1974.65C2640.03,1969.83 2647.84,1969.83 2652.66,1974.65L2719.83,2041.83L2652.66,2109.01C2650.25,2111.41 2647.09,2112.62 2643.93,2112.62C2640.78,2112.62 2637.62,2111.41 2635.21,2109.01ZM2807.94,2109.01L2740.76,2041.83L2807.94,1974.65C2812.76,1969.83 2820.57,1969.83 2825.39,1974.65C2830.21,1979.47 2830.21,1987.28 2825.39,1992.1L2775.66,2041.83L2825.39,2091.56C2830.21,2096.38 2830.21,2104.19 2825.39,2109.01C2822.98,2111.41 2819.83,2112.62 2816.67,2112.62C2813.51,2112.62 2810.35,2111.41 2807.94,2109.01ZM2822.61,2068.77C2808.62,2061.55 2803.13,2044.37 2810.35,2030.38C2817.56,2016.4 2834.74,2010.91 2848.73,2018.12C2862.72,2025.33 2868.2,2042.52 2860.99,2056.51C2855.93,2066.31 2845.97,2071.94 2835.65,2071.94C2831.25,2071.94 2826.79,2070.92 2822.61,2068.77ZM2602.58,2067.55C2588.6,2060.34 2583.11,2043.16 2590.32,2029.17C2597.53,2015.18 2614.72,2009.7 2628.7,2016.91C2642.69,2024.12 2648.18,2041.31 2640.97,2055.29C2635.91,2065.1 2625.94,2070.73 2615.62,2070.73C2611.22,2070.73 2606.76,2069.71 2602.58,2067.55ZM2778.79,1946.74C2783.61,1941.92 2791.42,1941.92 2796.24,1946.74C2801.06,1951.56 2801.06,1959.37 2796.24,1964.18L2729.07,2031.36L2661.89,1964.18C2657.07,1959.37 2657.07,1951.56 2661.89,1946.74C2666.71,1941.92 2674.52,1941.92 2679.34,1946.74L2729.07,1996.47L2778.79,1946.74ZM2716.19,1957.51C2702.2,1950.29 2696.71,1933.11 2703.92,1919.12C2711.14,1905.14 2728.32,1899.65 2742.31,1906.86C2756.29,1914.07 2761.78,1931.26 2754.57,1945.24C2749.51,1955.05 2739.55,1960.68 2729.22,1960.68C2724.83,1960.68 2720.36,1959.66 2716.19,1957.51Z" style="fill:white;"/>
                    </g>
                </g>
                <g id="Azul" transform="matrix(1.61257,0,1.35061e-17,1.49155,-711.928,-2139.66)">
                    <g transform="matrix(0.763881,0,-6.01754e-18,0.71847,75.4039,-657.517)">
                        <g id="D">
                            <g id="Azul1" serif:id="Azul">
                                <path id="Azul2" serif:id="Azul" d="M446.903,1839.78L446.905,1808.01L714.659,1648.81L714.659,1330.56L526.043,1218.76L484.365,1235.93L484.365,1204.07L526.145,1186.67L741.467,1314.63L741.461,1664.73L446.907,1839.78L446.907,1839.78L446.905,1839.78L446.903,1839.78L446.903,1839.78Z" style="fill:rgb(19,166,186);fill-rule:nonzero;"/>
                            </g>
                        </g>
                    </g>
                    <g transform="matrix(-0.763881,0,-6.01754e-18,0.71847,758.168,-657.517)">
                        <g id="I">
                            <g id="Azul3" serif:id="Azul">
                                <path id="Azul4" serif:id="Azul" d="M446.903,1839.78L446.905,1808.01L714.659,1648.81L714.659,1330.56L526.043,1218.76L484.365,1235.93L484.365,1204.07L526.145,1186.67L741.467,1314.63L741.461,1664.73L446.907,1839.78L446.907,1839.78L446.905,1839.78L446.903,1839.78L446.903,1839.78Z" style="fill:rgb(19,166,186);fill-rule:nonzero;"/>
                            </g>
                        </g>
                    </g>
                </g>
            </g>
        </g>
    </g>
</svg>
